<svg width="1000" height="1000" viewBox="0 0 1000 1000" fill="none" xmlns="http://www.w3.org/2000/svg">
<rect x="158" y="158" width="684" height="684" rx="192" fill="#FD79E0" stroke="#FD79E0" stroke-width="16"/>
<path d="M262 286.8C262 275.067 264.4 266.267 269.2 260.4C319.867 231.6 375.867 217.2 437.2 217.2C493.2 217.2 542 224.667 583.6 239.6C625.733 254.533 659.333 275.867 684.4 303.6C710 331.333 728.933 363.333 741.2 399.6C753.467 435.333 759.6 475.6 759.6 520.4C759.6 608.933 735.067 675.333 686 719.6C636.933 763.867 559.6 786 454 786C391.6 786 331.867 774.8 274.8 752.4C269.467 747.067 266.8 728.667 266.8 697.2C266.8 679.6 267.6 668.133 269.2 662.8C270.8 654.8 282 650.8 302.8 650.8C308.667 650.8 315.333 651.333 322.8 652.4C317.467 615.067 314.8 565.467 314.8 503.6C314.8 448.667 318 398 324.4 351.6C318.533 353.2 311.333 354 302.8 354C282 354 270.8 350 269.2 342C264.4 321.733 262 303.333 262 286.8ZM437.2 671.6C452.667 676.933 469.467 679.6 487.6 679.6C531.867 679.6 570 664.4 602 634C634.533 603.067 650.8 563.333 650.8 514.8C650.8 465.2 634.8 420.667 602.8 381.2C570.8 341.733 532.4 322 487.6 322C468.933 322 452.133 325.733 437.2 333.2C442 381.2 444.4 435.867 444.4 497.2C444.4 570.267 442 628.4 437.2 671.6Z" fill="white"/>
</svg>
